# xmcd CD database file
#
# Track frame offsets:
#	150
#	29507
#	57090
#	84890
#	113337
#	138102
#	166932
#	194557
#	224005
#
# Disc length: 3180 seconds
#
# Revision: 0
# Processed by: cddbd v1.5.1PL0 Copyright (c) Steve Scherf et al.
# Submitted via: CDex 1.51
#
DISCID=730c6a09
DTITLE=Harry Allen - This Is...
DYEAR=2004
DGENRE=Jazz
TTITLE0=with the wind and the rain in your hair
TTITLE1=take four
TTITLE2=it's been a long,long time
TTITLE3=hey,look me over
TTITLE4=seven come eleven
TTITLE5=i'll only miss her when i think of her
TTITLE6=travismo
TTITLE7=get out
TTITLE8=pick yourself up
EXTD=YEAR: 2004
EXTT0=
EXTT1=
EXTT2=
EXTT3=
EXTT4=
EXTT5=
EXTT6=
EXTT7=
EXTT8=
PLAYORDER=
